<svg width="445" height="182" viewBox="0 0 445 182" fill="none" xmlns="http://www.w3.org/2000/svg">
<path d="M109.5 27.6579C167.5 33.6579 316 165.158 336.5 146.658" stroke="black" stroke-width="10"/>
<path d="M378.501 135.658C355.501 154.658 389.001 163.158 391.001 132.158C393.001 122.158 371.001 119.658 357.001 142.658C333.5 173.158 361 198.658 389.5 158.158" stroke="black" stroke-width="4"/>
<path d="M77.0001 5.15781C57.5003 4.15772 47 30.1579 72.5 32.1579M73.4264 32.1579C89 29.6579 105.5 14.1579 105.5 2.15796C76.5 -1.84206 68.5 71.6579 43.5 51.658C54.5 36.658 75 64.158 86.5 50.658" stroke="black" stroke-width="4"/>
<path d="M266.5 61.6581C423 -50.8421 480 98.6579 409 143.658" stroke="black" stroke-width="10"/>
<path d="M182.801 112.041C32.5222 232.726 -32.3675 86.4772 36.1322 37.7555" stroke="black" stroke-width="10"/>
</svg>
